<?xml version="1.0" encoding="UTF-8" standalone="no"?>
<!-- Created with Inkscape (http://www.inkscape.org/) -->

<svg
   width="103.64781mm"
   height="103.64798mm"
   viewBox="0 0 103.64781 103.64798"
   version="1.1"
   id="svg1"
   xml:space="preserve"
   inkscape:version="1.3 (0e150ed6c4, 2023-07-21)"
   sodipodi:docname="drawing.svg"
   inkscape:export-filename="../../git/new-e-boi-/public/assets/eboi-logo.png"
   inkscape:export-xdpi="96"
   inkscape:export-ydpi="96"
   xmlns:inkscape="http://www.inkscape.org/namespaces/inkscape"
   xmlns:sodipodi="http://sodipodi.sourceforge.net/DTD/sodipodi-0.dtd"
   xmlns="http://www.w3.org/2000/svg"
   xmlns:svg="http://www.w3.org/2000/svg"><sodipodi:namedview
     id="namedview1"
     pagecolor="#505050"
     bordercolor="#eeeeee"
     borderopacity="1"
     inkscape:showpageshadow="0"
     inkscape:pageopacity="0"
     inkscape:pagecheckerboard="0"
     inkscape:deskcolor="#505050"
     inkscape:document-units="mm"
     showguides="false"
     inkscape:zoom="2.5398704"
     inkscape:cx="432.30552"
     inkscape:cy="548.45318"
     inkscape:window-width="1366"
     inkscape:window-height="702"
     inkscape:window-x="0"
     inkscape:window-y="30"
     inkscape:window-maximized="1"
     inkscape:current-layer="layer2" /><defs
     id="defs1" /><g
     inkscape:groupmode="layer"
     id="layer2"
     inkscape:label="Layer 2"
     transform="translate(-55.191413,-71.912092)"><g
       id="g7"
       transform="matrix(3.9945589,0,0,3.9945589,-532.04929,-467.1037)"><path
         id="path5"
         style="fill:#a8d601;fill-opacity:1;stroke:none;stroke-width:0.200843"
         inkscape:label="path5"
         d="m 159.98403,134.9375 a 12.97339,12.973651 0 0 0 -12.97388,12.97337 12.97339,12.973651 0 0 0 2.3275,7.37216 c 0.0105,-0.11167 0.0224,-0.22283 0.0413,-0.33383 a 12.739927,12.740183 0 0 1 -2.13527,-7.03833 12.739927,12.740183 0 0 1 12.7403,-12.74031 12.739927,12.740183 0 0 1 4.21628,0.71985 h 0.58446 a 12.97339,12.973651 0 0 0 -4.80074,-0.95291 z m 8.60155,3.27474 v 0.30282 a 12.739927,12.740183 0 0 1 4.13824,9.39581 12.739927,12.740183 0 0 1 -2.86545,8.04809 c 0.0609,0.0437 0.11891,0.0954 0.17466,0.15554 a 12.97339,12.973651 0 0 0 2.92437,-8.20363 12.97339,12.973651 0 0 0 -4.37182,-9.69863 z m -2.25,21.00647 c -0.24429,0.0627 -0.49506,0.14709 -0.74,0.1266 a 12.739927,12.740183 0 0 1 -5.61155,1.30587 12.739927,12.740183 0 0 1 -5.74848,-1.39992 c -0.13386,0.02 -0.26803,0.0344 -0.40256,0.045 a 12.97339,12.973651 0 0 0 6.15104,1.58853 12.97339,12.973651 0 0 0 6.35155,-1.66604 z" /><path
         style="fill:#a8d601;fill-opacity:1;stroke-width:0.247097"
         d="m 152.12165,158.06921 c -1.15164,-0.37588 -1.67948,-1.03458 -1.73447,-2.16445 -0.0463,-0.95053 0.19763,-1.69714 0.79167,-2.42349 0.5528,-0.67591 1.23227,-1.01745 2.77949,-1.39709 0.98888,-0.24265 0.99977,-0.24728 0.98006,-0.41731 -0.0231,-0.19958 -0.0369,-0.20066 -0.94938,-0.075 -0.97142,0.13382 -1.97001,-0.0767 -2.58362,-0.54473 -0.35378,-0.26983 -0.50879,-0.54391 -0.54947,-0.97153 -0.0649,-0.68244 0.41064,-1.22453 1.20361,-1.372 0.29111,-0.0541 0.43012,-0.0559 0.47981,-0.006 0.0497,0.0497 -0.0254,0.10162 -0.25911,0.17925 -0.18099,0.0601 -0.40784,0.17126 -0.50413,0.247 -0.47321,0.37223 -0.46372,1.15825 0.0205,1.69418 0.38107,0.4218 0.66652,0.53512 1.42602,0.56612 1.02267,0.0417 1.85933,-0.22998 1.85933,-0.60383 0,-0.0826 0.1038,-0.35771 0.23068,-0.61132 0.29518,-0.59003 0.83561,-1.09999 1.5204,-1.43469 0.49806,-0.24343 0.51439,-0.24655 1.28898,-0.24655 0.94062,0 1.2269,0.11019 1.50087,0.57769 0.33033,0.56365 0.20117,1.05898 -0.45273,1.7363 -0.6894,0.71409 -1.30338,0.92793 -1.95936,0.68239 -0.28002,-0.10481 -0.34503,-0.1656 -0.49033,-0.45848 -0.22109,-0.44564 -0.22705,-0.44946 -0.4517,-0.2895 -0.1065,0.0758 -0.22186,0.13789 -0.25636,0.13789 -0.117,0 -0.39128,0.32783 -0.42803,0.51161 -0.0201,0.10058 -0.0121,0.29139 0.0178,0.42403 l 0.0544,0.24116 h -0.31573 c -0.78557,0 -1.9984,0.40363 -2.7764,0.92399 -0.60388,0.4039 -0.94987,0.79351 -1.2576,1.41617 -0.21269,0.43034 -0.24314,0.5546 -0.26548,1.08334 -0.0211,0.49842 -0.001,0.66214 0.1206,0.9895 0.4503,1.21112 2.28477,1.85178 3.83001,1.33755 0.85129,-0.28328 1.86041,-1.13173 2.22204,-1.86824 0.2503,-0.50976 0.26134,-1.13993 0.0283,-1.61779 -0.1429,-0.29306 -0.20108,-0.34033 -0.74436,-0.60475 -0.69257,-0.33708 -0.96217,-0.35989 -1.46839,-0.12423 -0.38135,0.17754 -1.08003,0.80443 -1.23964,1.11226 -0.26664,0.51426 -0.21484,0.94764 0.15173,1.26949 0.24373,0.21399 0.52165,0.25947 0.8418,0.13775 0.12952,-0.0492 0.1677,-0.10924 0.1677,-0.26356 0,-0.23479 0.13381,-0.31046 0.36374,-0.2057 0.38059,0.17341 0.0452,0.90583 -0.48422,1.05758 -0.1973,0.0566 -0.32483,0.0422 -0.72943,-0.082 -0.46164,-0.14174 -0.49925,-0.1677 -0.64252,-0.44365 -0.13075,-0.25182 -0.1476,-0.35948 -0.11965,-0.76446 0.0279,-0.40493 0.0665,-0.52256 0.27373,-0.83473 0.4673,-0.70403 1.25401,-1.23876 2.0648,-1.40346 0.29403,-0.0597 0.45837,-0.0554 0.82761,0.0216 0.68246,0.1423 1.0607,0.3793 1.27582,0.79941 0.32831,0.64117 0.10048,1.81012 -0.4821,2.47364 -0.33872,0.38578 -1.27441,1.06403 -1.85745,1.34639 -0.69634,0.33724 -1.22564,0.45326 -2.0594,0.45139 -0.57578,-0.001 -0.77902,-0.0317 -1.26044,-0.18887 z m 6.19647,-6.99301 c 0.14383,-0.0669 0.3862,-0.25092 0.5386,-0.40888 0.47826,-0.4957 0.48225,-1.11146 0.0104,-1.59832 -0.26822,-0.27672 -0.56582,-0.37745 -1.10468,-0.3739 -0.74642,0.005 -1.34876,0.3785 -1.68978,1.04804 -0.14113,0.27707 -0.35096,0.94235 -0.3101,0.98321 0.0441,0.0441 0.42241,-0.17323 1.00741,-0.57876 0.3056,-0.21184 0.59507,-0.38516 0.64329,-0.38516 0.11324,0 0.10835,0.18453 -0.0104,0.39226 -0.21243,0.3716 -0.0375,0.9326 0.31184,1.00008 0.27147,0.0524 0.34145,0.0433 0.60345,-0.0786 z m 1.73735,7.09311 c -0.0421,-0.0507 -0.0919,-0.19047 -0.11058,-0.31054 -0.0459,-0.29457 0.3461,-1.08267 1.52569,-3.0671 0.50388,-0.84768 1.10101,-1.87134 1.32695,-2.27482 0.22595,-0.40347 0.46332,-0.76169 0.52748,-0.79603 0.0642,-0.0343 0.22157,-0.0624 0.34979,-0.0624 0.42066,0 0.37588,0.099 -1.11656,2.46932 l -0.66975,1.06369 0.5752,-0.0172 c 0.63569,-0.019 0.75479,0.0303 0.82311,0.3414 0.0554,0.25198 -0.0657,0.87215 -0.24154,1.23804 -0.2045,0.42539 -0.79123,0.98033 -1.33706,1.26462 -0.43202,0.22501 -0.50896,0.24334 -1.02169,0.24334 -0.39754,0 -0.57616,-0.0261 -0.63104,-0.0922 z m 1.36809,-0.30694 c 0.64397,-0.38606 1.10877,-1.09872 1.26516,-1.93983 0.0354,-0.19028 0.0162,-0.22861 -0.17136,-0.34299 -0.5658,-0.34498 -0.93821,-0.0577 -1.57881,1.21782 -0.23665,0.4712 -0.43028,0.90368 -0.43028,0.96107 0,0.25854 0.55271,0.32129 0.91529,0.10393 z m 0.61621,0.3417 c 0.026,-0.0421 0.24516,-0.17618 0.48699,-0.29796 0.24182,-0.12178 0.56755,-0.32825 0.72384,-0.45883 0.15628,-0.13057 0.3387,-0.26659 0.40536,-0.30227 0.0667,-0.0357 0.12121,-0.11932 0.12121,-0.18587 0,-0.18757 0.48345,-0.86676 0.79541,-1.11746 0.15431,-0.12401 0.50129,-0.33635 0.77105,-0.47187 0.40675,-0.20435 0.55848,-0.2464 0.88892,-0.2464 0.339,0 0.42104,0.024 0.54988,0.1612 0.13335,0.14194 0.14729,0.20697 0.11668,0.5445 -0.10507,1.15879 -1.41244,2.43243 -2.49683,2.43243 -0.49315,0 -0.69049,-0.17883 -0.69049,-0.62572 v -0.30478 l -0.25093,0.2267 c -0.36322,0.32814 -1.56118,0.87299 -1.42109,0.64633 z m 2.95796,-0.20314 c 0.12842,-0.001 0.7814,-0.63734 0.99272,-0.96667 0.22927,-0.35728 0.40387,-0.95541 0.35441,-1.21412 -0.0796,-0.4164 -0.56383,-0.48837 -1.00557,-0.14945 -0.73445,0.5635 -1.17085,1.46862 -1.01243,2.09981 0.0468,0.1865 0.25972,0.30615 0.46366,0.26055 0.0719,-0.0161 0.16516,-0.0296 0.20721,-0.0301 z m 0.90748,0.20656 c 0.0342,-0.0297 0.25334,-0.18809 0.48707,-0.35191 0.67852,-0.47558 1.09939,-0.97322 1.6045,-1.89711 l 0.4549,-0.83208 0.24517,-10e-4 c 0.13484,-7.4e-4 0.24516,0.0282 0.24516,0.0645 0,0.0363 -0.29639,0.65823 -0.65865,1.38206 -0.56175,1.12242 -0.64532,1.32941 -0.56795,1.40678 0.14004,0.14004 0.48331,-0.0346 1.06449,-0.54142 0.2727,-0.23784 0.51231,-0.41595 0.53245,-0.39581 0.0731,0.0731 -0.71459,0.8823 -1.0213,1.04924 -0.40708,0.22156 -1.02857,0.24355 -1.21023,0.0428 -0.0714,-0.0789 -0.10434,-0.19081 -0.0854,-0.29 l 0.0309,-0.16154 -0.20447,0.15596 c -0.11246,0.0858 -0.33602,0.21563 -0.49681,0.28856 -0.29808,0.13522 -0.53426,0.18102 -0.41983,0.0814 z m -7.2693,-1.79065 c 0.022,-0.0821 0.0404,-0.17138 0.0409,-0.19835 5e-4,-0.027 0.33668,-0.049 0.74709,-0.049 h 0.74619 l -0.048,0.17979 -0.048,0.17979 -0.73911,0.0186 -0.73912,0.0186 z m 10.43686,-2.07796 c -0.15359,-0.15359 -0.15933,-0.19745 -0.0462,-0.35223 0.0594,-0.0813 0.15185,-0.10932 0.31055,-0.0942 0.18921,0.018 0.2292,0.0497 0.24601,0.19496 0.014,0.12124 -0.0248,0.20489 -0.12896,0.27785 -0.19098,0.13377 -0.22357,0.13152 -0.38145,-0.0264 z"
         id="path3" /><path
         style="fill:#a8d601;fill-opacity:1;stroke-width:0.264583"
         d="m 156.83191,136.95 h 9.23687 l 1.33123,1.33123 v 7.5534 h -0.7623 v -6.07434 l -1.00973,2.24287 v 0.53032 l 0.40893,0.70828 -0.28277,3.5397 h -0.68866 l -0.0854,-2.73421 -1.46604,2.71671 -0.86665,0.0521 1.15498,-3.86501 -0.18268,0.006 -0.82055,0.63855 h -3.08036 l -0.0328,3.09164 h -0.64044 l -0.3674,-2.9612 -1.03969,-0.11921 -1.02057,3.12805 -0.65471,-0.002 0.55037,-3.34276 -0.28772,-0.0309 -0.85421,0.9182 -0.0426,1.17664 -1.57014,1.31783 -1.19133,0.01 0.59423,-2.74814 -0.42023,-0.92829 1.1083,0.0213 z"
         id="path1"
         sodipodi:nodetypes="cccccccccccccccccccccccccccccccccc" /></g></g></svg>
